<svg fill="none" height="120" viewBox="0 0 120 120" width="120" xmlns="http://www.w3.org/2000/svg"><g fill="#fff"><path d="m8.5284 59.9966c0 20.373 11.8397 37.9792 29.0081 46.3224l-24.5519-67.2693c-2.8559 6.4012-4.4562 13.485-4.4562 20.9469z"/><path d="m94.7448 57.3993c0-6.361-2.2849-10.7663-4.2446-14.1951-2.609-4.2397-5.0545-7.8301-5.0545-12.0698 0-4.7314 3.5884-9.1356 8.6429-9.1356.2282 0 .4447.0284.667.0411-9.1572-8.3893-21.3572-13.51146-34.7571-13.51146-17.9813 0-33.8012 9.22576-43.0044 23.19946 1.2076.0362 2.3456.0617 3.3123.0617 5.3836 0 13.7171-.6532 13.7171-.6532 2.7746-.1636 3.1017 3.9116.3301 4.2397 0 0-2.7883.3281-5.891.4906l18.7433 55.751 11.2638-33.7816-8.0191-21.9713c-2.7716-.1626-5.3973-.4907-5.3973-.4907-2.7736-.1626-2.4485-4.4033.3251-4.2397 0 0 8.5.6532 13.5575.6532 5.3827 0 13.7171-.6532 13.7171-.6532 2.7766-.1636 3.1027 3.9116.3301 4.2397 0 0-2.7942.3281-5.891.4907l18.6004 55.3289 5.1338-17.1558c2.2252-7.1191 3.9185-12.2324 3.9185-16.6386z"/><path d="m60.9015 64.4988-15.4428 44.8742c4.6109 1.355 9.4872 2.097 14.5398 2.097 5.9938 0 11.7418-1.037 17.0921-2.918-.1381-.22-.2635-.454-.3663-.709z"/><path d="m105.161 35.3026c.222 1.6395.347 3.3994.347 5.2926 0 5.223-.975 11.0943-3.913 18.4357l-15.7223 45.4561c15.3013-8.9234 25.5943-25.5013 25.5943-44.4894.001-8.9486-2.285-17.3634-6.306-24.695z"/><path d="m59.9985 0c-33.0823 0-59.9985 26.9142-59.9985 59.9966 0 33.0862 26.9162 59.9994 59.9985 59.9994 33.0814 0 60.0015-26.9132 60.0015-59.9994-.001-33.0824-26.9201-59.9966-60.0015-59.9966zm0 117.246c-31.5653 0-57.24743-25.6822-57.24743-57.2494 0-31.5653 25.68123-57.24553 57.24743-57.24553 31.5643 0 57.2445 25.68023 57.2445 57.24553 0 31.5672-25.6802 57.2494-57.2445 57.2494z"/></g></svg>