<svg width="212" height="37" viewBox="0 0 212 37" fill="none" xmlns="http://www.w3.org/2000/svg">
<path d="M177.459 13.0089C177.307 12.9488 177.138 12.9147 176.965 12.9152L175.848 12.9183C175.095 12.9204 174.486 13.5315 174.488 14.2836L174.495 16.73C174.495 16.7386 174.495 16.7516 174.495 16.7602L174.495 16.7645L174.518 25.2144L174.518 25.2187C174.518 25.2317 174.518 25.2404 174.519 25.249L174.525 27.6392C174.527 28.3912 175.14 28.9989 175.893 28.9968L177.01 28.9937C177.149 28.9933 177.278 28.9713 177.404 28.9364C177.966 28.7663 178.376 28.2465 178.374 27.6284L178.337 14.2728C178.335 13.698 177.97 13.2019 177.459 13.0089Z" fill="white"/>
<path d="M187.188 12.9125C183.36 12.9232 180.265 16.0309 180.275 19.8517L180.284 23.0285L180.297 27.5063C180.299 28.1503 180.694 28.6981 181.258 28.9299C181.44 29.0029 181.635 29.0456 181.842 29.045L182.609 29.0429C183.462 29.0405 184.148 28.347 184.146 27.4999L184.14 25.1961L184.14 25.1918L184.133 23.0221L184.125 19.8193C184.12 18.1207 185.497 16.7424 187.194 16.7376C188.896 16.7329 190.277 18.1078 190.282 19.8021L190.29 22.8665L190.297 25.1789L190.297 25.1832L190.303 27.6296C190.306 28.4032 190.935 29.0239 191.706 29.0217L192.754 29.0188C192.936 29.0183 193.109 28.9832 193.269 28.9179C193.788 28.7133 194.15 28.2066 194.148 27.6145L194.142 25.1681L194.135 22.8514L194.127 19.8173C194.129 15.9921 191.016 12.9018 187.188 12.9125Z" fill="white"/>
<path d="M127.397 13.4539C127.206 13.4545 127.02 13.4852 126.843 13.5376C126.782 13.5594 126.722 13.5812 126.661 13.6029C123.608 14.7482 121.45 17.4989 121.425 20.719C121.425 20.7449 121.421 20.7752 121.421 20.8011C121.421 20.8271 121.421 20.8573 121.425 20.8832L121.427 21.484L121.429 22.2707L121.429 22.275L121.446 28.4125L121.448 29.1689C121.461 29.1688 121.474 29.1688 121.487 29.1688C121.656 29.1683 121.821 29.1549 121.981 29.1328C122.05 29.1542 122.128 29.167 122.206 29.1668L124.54 29.1602C124.96 29.159 125.297 28.821 125.295 28.4017L125.287 25.5448L125.278 22.2642L125.275 21.0843C125.27 19.2603 126.422 17.7054 128.039 17.1087C128.178 17.0478 128.307 16.974 128.424 16.8959C128.454 16.8785 128.485 16.8568 128.511 16.8351C128.536 16.8177 128.562 16.7961 128.588 16.7787C128.597 16.7743 128.601 16.7657 128.61 16.7613C129.02 16.4144 129.283 15.8993 129.281 15.3202C129.278 14.2872 128.432 13.451 127.397 13.4539Z" fill="white"/>
<path d="M119.188 21.5935C119.197 21.4206 119.205 21.2477 119.204 21.0705C119.175 16.6144 115.532 13.0241 111.063 13.0539C106.599 13.0837 103.003 16.7201 103.032 21.1806C103.062 25.6367 106.705 29.2269 111.173 29.1971C112.715 29.1885 114.151 28.7479 115.374 27.9924L115.376 28.4808C115.377 28.8396 115.668 29.1284 116.027 29.1273L118.577 29.1202C118.937 29.1192 119.226 28.8288 119.225 28.4701L119.206 21.7361C119.206 21.6886 119.197 21.641 119.188 21.5935ZM111.145 25.3547C108.807 25.3699 106.897 23.4908 106.882 21.1568C106.866 18.8229 108.749 16.9158 111.087 16.9006C113.425 16.8855 115.336 18.7646 115.351 21.0986C115.37 23.4325 113.483 25.3396 111.145 25.3547Z" fill="white"/>
<path d="M211.623 21.1084C211.614 18.1693 210.07 15.5976 207.754 14.1388C206.756 13.5106 205.616 13.0902 204.395 12.938C203.983 12.8743 203.559 12.8409 203.13 12.8421C198.666 12.8546 195.057 16.4781 195.069 20.9386C195.069 20.9732 195.074 21.0121 195.074 21.0466C195.074 21.0812 195.069 21.1201 195.07 21.1547C195.082 25.7189 198.799 29.4083 203.371 29.3955C204.999 29.391 206.518 28.9156 207.797 28.0995L207.8 28.9682L207.808 28.9682L207.8 28.9682C207.763 31.2677 205.889 33.1229 203.577 33.1294L200.628 33.1376C199.563 33.1406 198.704 34.0031 198.707 35.0664C198.71 36.1297 199.574 36.9874 200.639 36.9844L203.587 36.9761C208.026 36.9637 211.618 33.3835 211.649 28.9574L211.645 28.9575L211.649 28.9574L211.627 21.1084L211.623 21.1084ZM207.387 20.9041C207.394 23.2381 205.503 25.1365 203.165 25.1431C200.827 25.1496 198.925 23.2618 198.918 20.9278C198.912 18.5938 200.803 16.6954 203.141 16.6889C205.479 16.678 207.381 18.5658 207.387 20.9041Z" fill="white"/>
<path d="M95.0777 13.0995C93.1076 13.105 91.3347 13.9312 90.0784 15.2487C88.8147 13.9383 87.0371 13.122 85.0671 13.1276C81.2395 13.1383 78.1436 16.246 78.1543 20.0668L78.1628 23.0966C78.1586 23.1269 78.1586 23.1572 78.1587 23.1874L78.1726 28.1493C78.1744 28.7803 78.6867 29.2889 79.3189 29.2871L80.882 29.2828C81.5141 29.281 82.0236 28.7696 82.0219 28.1428L82.0262 28.1428L82.0036 20.056C81.9988 18.3574 83.3762 16.9791 85.0778 16.9743C86.7795 16.9695 88.1602 18.3445 88.165 20.0388L88.1737 23.1594L88.1876 28.1213C88.1894 28.7523 88.7017 29.2609 89.3339 29.2591L90.8969 29.2547C91.5291 29.253 92.0386 28.7415 92.0368 28.1105L92.0229 23.1486L92.0142 20.028C92.0095 18.3294 93.3825 16.9511 95.0841 16.9463C96.7858 16.9415 98.1665 18.3165 98.1713 20.0108L98.18 23.1227L98.18 23.1271L98.1939 28.0889L98.1939 28.0932C98.1996 28.5687 98.4951 28.9785 98.9113 29.1459C99.0456 29.1974 99.1886 29.2272 99.3402 29.2268L100.903 29.2224C101.535 29.2206 102.045 28.7092 102.043 28.0781L102.036 25.4546L102.029 23.1163L102.021 19.9957C102.018 16.1791 98.9053 13.0888 95.0777 13.0995Z" fill="white"/>
<path d="M172.432 12.928L171.249 12.9313L171.211 12.9314L171.21 12.711L171.205 10.8568L171.204 10.7098L171.199 8.85558C171.197 8.13378 170.611 7.55192 169.888 7.55394L168.688 7.5573C168.524 7.55776 168.368 7.58845 168.225 7.64504C167.732 7.83228 167.387 8.30869 167.389 8.86625L167.394 10.7205L167.4 12.9421L166.227 12.9454C165.603 12.9471 165.102 13.4542 165.104 14.0723L165.107 14.8978C165.107 15.0837 165.155 15.2607 165.234 15.4118C165.421 15.7743 165.798 16.0197 166.235 16.0184L167.409 16.0151L167.428 22.8485L167.428 22.8658C167.46 25.1392 168.462 27.1808 170.038 28.5984L170.042 28.5941C170.207 28.7276 170.393 28.8308 170.593 28.9037C170.792 28.9767 171.004 29.015 171.23 29.0143C171.238 29.0143 171.247 29.0143 171.26 29.0142C172.282 28.9941 173.106 28.1619 173.103 27.1376C173.102 26.6665 172.923 26.2347 172.637 25.907L172.658 25.8854C171.907 25.2435 171.385 24.3373 171.248 23.3133L171.245 22.0123L171.233 17.863L171.228 16.0088L171.267 16.0087L172.449 16.0054C172.886 16.0041 173.262 15.7567 173.447 15.3931C173.529 15.2373 173.572 15.0643 173.571 14.8784L173.569 14.0529C173.559 13.4305 173.051 12.9263 172.432 12.928Z" fill="white"/>
<path d="M166.08 17.8646C165.823 17.2645 165.493 16.7035 165.101 16.1903C163.615 14.2322 161.26 12.9723 158.611 12.9927C154.151 13.0225 150.563 16.6546 150.593 21.1064C150.622 25.5582 154.261 29.1398 158.721 29.11C160.448 29.0965 162.049 28.5431 163.354 27.6102L163.345 27.5972C165.756 25.8054 163.207 23.1846 161.072 24.5175C161.055 24.5305 161.037 24.5392 161.016 24.5523C160.973 24.5783 160.929 24.6087 160.886 24.6391C160.246 25.0342 159.498 25.2654 158.693 25.2719C156.9 25.2856 155.364 24.1791 154.736 22.6119L164.877 22.5446C164.92 22.5488 164.959 22.5487 165.002 22.5486C165.05 22.5484 165.102 22.544 165.149 22.5395C166.02 22.4636 166.702 21.7528 166.734 20.8753C166.734 20.8537 166.738 20.8278 166.738 20.8062C166.738 20.7413 166.733 20.6765 166.725 20.616C166.674 19.6437 166.446 18.715 166.08 17.8646ZM154.724 19.5993C155.33 18.0243 156.851 16.9006 158.643 16.887C160.436 16.8733 161.972 17.9798 162.599 19.547L154.724 19.5993Z" fill="white"/>
<path d="M176.403 11.8584C177.766 11.8546 178.868 10.7485 178.864 9.38782C178.86 8.02718 177.752 6.92726 176.389 6.93108C175.026 6.9349 173.924 8.041 173.928 9.40163C173.932 10.7623 175.04 11.8622 176.403 11.8584Z" fill="white"/>
<path d="M73.3019 23.7149C74.6793 23.711 75.7928 22.5933 75.7889 21.2183C75.7851 19.8433 74.6654 18.7318 73.288 18.7357C71.9106 18.7396 70.7971 19.8573 70.8009 21.2323C70.8048 22.6072 71.9245 23.7187 73.3019 23.7149Z" fill="white"/>
<path d="M131.146 16.5282C131.124 14.1518 131.105 11.7753 131.083 9.39895C131.072 8.20285 131.06 7.00676 131.049 5.81067C131.044 5.48303 131.051 5.15141 131.034 4.82381C130.993 4.06203 131.509 3.31449 132.45 3.23685C132.833 3.2042 133.217 3.14786 133.6 3.09547C134.403 2.98269 135.112 3.54521 135.253 4.38566C135.442 5.50625 135.643 6.62681 135.836 7.74739C136.041 8.91531 136.242 10.0832 136.447 11.2512C136.639 12.3638 136.836 13.4765 137.029 14.5892C137.266 15.9386 137.5 17.288 137.737 18.6375C137.974 19.9948 138.211 21.3521 138.448 22.7094C138.709 24.1969 138.966 25.6884 139.228 27.1759C139.276 27.4442 139.32 27.7125 139.368 27.9808C139.537 28.9041 138.859 29.7231 137.918 29.7258C136.194 29.7306 134.47 29.7354 132.745 29.7403C131.923 29.7426 131.276 29.1246 131.262 28.3035C131.243 27.068 131.236 25.8285 131.224 24.5929C131.212 23.1915 131.197 21.7941 131.185 20.3928C131.174 19.2282 131.162 18.0677 131.151 16.9032C131.151 16.7768 131.151 16.6505 131.15 16.5242C131.15 16.5281 131.15 16.5281 131.146 16.5282Z" fill="white"/>
<path d="M146.395 5.02602C146.98 5.02833 147.408 5.18109 147.784 5.48005C148.212 5.8223 148.636 6.17245 149.06 6.5226C149.401 6.80192 149.41 7.25192 149.091 7.55678C147.012 9.53641 145.219 11.7442 143.771 14.2194C142.385 16.584 141.364 19.0975 140.743 21.7679C140.481 22.8897 140.291 24.0232 140.203 25.1722C140.168 25.6302 140.154 26.0882 140.128 26.5501C140.124 26.6212 140.164 26.7356 140.041 26.7478C139.919 26.7599 139.938 26.6415 139.922 26.5705C139.589 24.8068 139.26 23.0392 138.93 21.2755C138.581 19.3935 138.228 17.5154 137.878 15.6334C137.746 14.9193 137.602 14.2051 137.481 13.487C137.344 12.6702 137.54 11.9354 138.068 11.2865C139.357 9.696 140.871 8.35352 142.537 7.17247C143.488 6.49872 144.471 5.88014 145.482 5.29701C145.798 5.11454 146.134 5.0228 146.395 5.02602Z" fill="white"/>
<path d="M149.99 26.3804C149.991 26.8659 149.621 27.2696 149.13 27.3302C148.34 27.4232 147.545 27.5281 146.754 27.6171C146.422 27.6575 146.149 27.528 145.903 27.2998C145.439 26.8629 144.975 26.4181 144.484 26.0129C143.655 25.3283 142.74 24.7703 141.79 24.2756C141.6 24.1774 141.402 24.0872 141.263 23.9099C141.092 23.6893 141.02 23.4448 141.071 23.1683C141.309 21.9478 141.697 20.7703 142.133 19.6125C142.215 19.3912 142.302 19.1738 142.392 18.9564C142.624 18.3873 143.256 18.2079 143.755 18.5658C144.837 19.3483 145.789 20.2694 146.658 21.2775C147.891 22.711 148.936 24.2753 149.858 25.9228C149.934 26.0608 149.966 26.2225 150.017 26.3763C150.01 26.3764 149.998 26.3803 149.99 26.3804Z" fill="white"/>
<path d="M130.962 1.38212C131.005 1.20041 131.024 1.00298 131.098 0.833021C131.24 0.504974 131.512 0.330516 131.864 0.28216C132.425 0.209532 132.987 0.148747 133.548 0.0642756C134.276 -0.0443458 134.716 0.479453 134.745 0.984666C134.762 1.2649 134.794 1.53325 134.644 1.79026C134.471 2.07892 134.219 2.24148 133.883 2.27795C133.286 2.34673 132.685 2.41947 132.088 2.4764C131.439 2.53743 130.975 2.0887 130.993 1.4373C130.993 1.42151 130.993 1.40572 130.993 1.38993C130.981 1.38601 130.973 1.38604 130.962 1.38212Z" fill="white"/>
<path d="M149.24 29.6193C148.702 29.6208 148.164 29.6223 147.626 29.6238C147.262 29.6248 147.044 29.4201 146.905 29.1047C146.778 28.8169 146.797 28.5524 146.986 28.2992C147.12 28.1212 147.305 28.0377 147.527 28.0371C148.429 28.0306 149.326 28.0281 150.228 28.0296C150.56 28.0326 150.778 28.2057 150.886 28.5172C150.946 28.6947 151.009 28.8682 151.061 29.0497C151.093 29.164 151.117 29.2824 151.129 29.4008C151.146 29.531 151.055 29.6102 150.905 29.6146C150.707 29.6191 150.505 29.6157 150.307 29.6163C149.952 29.6173 149.596 29.6183 149.24 29.6193Z" fill="white"/>
<path d="M149.685 3.55608C149.784 3.59923 149.914 3.63045 150.009 3.70913C150.437 4.03953 150.857 4.37785 151.278 4.72012C151.591 4.97584 151.592 5.38638 151.284 5.64779C151.067 5.82998 150.846 6.01219 150.621 6.19047C150.377 6.38458 150.092 6.38143 149.85 6.18078C149.367 5.77948 148.879 5.37424 148.399 4.96898C148.058 4.68176 148.124 4.18417 148.535 4.00143C148.827 3.87035 149.128 3.75108 149.424 3.62787C149.495 3.59609 149.574 3.58403 149.685 3.55608Z" fill="white"/>
<path d="M55.8666 21.7035C55.9026 21.9257 55.9119 22.1095 55.9596 22.2813C56.6853 24.8255 59.8341 26.9953 63.0081 25.5251C63.3023 25.3879 63.5786 25.2093 63.8758 25.081C64.1229 24.9766 64.3847 24.878 64.6468 24.8506C65.2504 24.7837 65.7785 25.0816 65.9948 25.5582C66.2052 26.023 66.071 26.4591 65.5539 26.92C64.6343 27.7407 63.528 28.1736 62.3387 28.3845C58.1642 29.1224 54.2984 26.498 53.3942 22.327C52.3946 17.7205 55.9313 13.2258 60.6198 13.0555C64.2835 12.9238 67.6217 15.3925 68.4362 19.1132C68.5287 19.5339 68.5711 19.9754 68.5753 20.4082C68.5834 21.2144 68.3191 21.4908 67.5299 21.5493C67.0705 21.5832 66.6111 21.5964 66.1487 21.5977C62.8705 21.6217 59.5924 21.6427 56.3142 21.6667C56.1817 21.67 56.0521 21.6882 55.8666 21.7035ZM65.8039 19.4229C65.4143 17.0438 62.8707 15.3732 60.2266 15.674C58.2273 15.899 56.0356 17.8881 56.1077 19.4501C59.3182 19.4411 62.5345 19.4321 65.8039 19.4229Z" fill="white"/>
<path d="M33.369 28.6913C29.0687 28.7063 25.678 25.3188 25.66 20.9941C25.642 16.6872 29.0991 13.2509 33.4348 13.2595C37.629 13.2685 41.0583 16.7359 41.0672 20.9776C41.0763 25.2757 37.6839 28.6762 33.369 28.6913ZM38.5254 20.9759C38.5142 18.0384 36.2044 15.7269 33.3062 15.7498C30.4993 15.7725 28.1878 18.1029 28.1839 20.9159C28.1804 23.8445 30.5138 26.2093 33.3737 26.1806C36.2719 26.1487 38.5335 23.8659 38.5254 20.9759Z" fill="white"/>
<path d="M10.176 8.34785C12.4025 8.27641 14.3663 9.02974 16.1401 10.3379C16.2493 10.4176 16.3585 10.5003 16.453 10.5979C16.84 10.997 16.8971 11.4148 16.6392 11.8571C16.3812 12.2995 15.9783 12.4963 15.4593 12.3021C14.8018 12.0579 14.1706 11.7396 13.5365 11.4301C10.4514 9.93292 6.78316 10.536 4.50455 13.0382C2.46671 15.276 1.75842 17.9339 2.73264 20.839C3.70687 23.7471 5.91452 25.3535 8.84106 25.9885C10.6212 26.3748 12.2721 25.8692 13.8545 25.0822C14.2192 24.9004 14.5573 24.6564 14.9369 24.5308C15.2841 24.4143 15.6874 24.3301 16.041 24.3884C16.7924 24.5138 17.0747 25.3815 16.5844 25.9668C16.4142 26.1718 16.1908 26.3414 15.9733 26.5021C14.4537 27.6446 12.6996 28.1238 10.8536 28.3957C6.31076 29.0694 0.656724 25.2555 0.0778057 19.4147C-0.443632 14.1162 3.18273 9.06401 9.03912 8.35696C9.41306 8.31145 9.79607 8.34892 10.176 8.34785Z" fill="white"/>
<path d="M47.524 12.6927C48.6492 12.7133 49.6106 13.1226 50.4959 13.7396C51.0301 14.1116 51.1581 14.5855 50.912 15.0753C50.6865 15.5235 50.254 15.7026 49.6586 15.5383C49.2695 15.4297 48.9066 15.2351 48.5263 15.0998C47.4856 14.7292 46.5049 14.7734 45.6411 15.5495C44.6334 16.4564 44.6456 17.6835 45.7494 18.4571C46.8561 19.2365 48.0244 19.9298 49.1722 20.6469C50.1842 21.2814 50.8876 22.139 51.1442 23.324C51.6187 25.5191 50.3935 27.6538 48.26 28.3356C46.7651 28.8141 45.3184 28.6343 43.9467 27.8823C43.69 27.7407 43.445 27.5517 43.25 27.3329C42.9752 27.0284 42.9739 26.5304 43.185 26.1889C43.4107 25.8207 43.7667 25.6715 44.2354 25.8066C44.7011 25.9416 45.1552 26.1212 45.6152 26.2799C46.4819 26.5799 47.3124 26.536 48.1093 26.0447C49.2736 25.3271 49.587 23.6337 48.1707 22.7573C47.0643 22.0727 45.9696 21.3732 44.872 20.6738C43.9278 20.0717 43.2069 19.2853 42.8975 18.1775C42.347 16.199 43.545 13.8124 45.4812 13.1371C46.1315 12.907 46.8411 12.8369 47.524 12.6927Z" fill="white"/>
<path d="M20.6035 18.2513C20.5956 15.4205 20.5847 12.5898 20.5827 9.75898C20.5817 9.40625 20.5719 9.04464 20.6328 8.70063C20.74 8.08378 21.2455 7.6733 21.8257 7.66575C22.4148 7.65817 22.89 8.04219 23.0273 8.67317C23.084 8.93683 23.0965 9.21246 23.0973 9.4822C23.1166 15.3068 23.1329 21.1343 23.1462 26.9589C23.147 27.2286 23.136 27.5073 23.0778 27.7683C22.9265 28.4327 22.518 28.7421 21.8611 28.7321C21.2425 28.722 20.785 28.3498 20.6713 27.7217C20.6234 27.458 20.6344 27.1794 20.6337 26.9067C20.6197 24.0225 20.6146 21.1354 20.6035 18.2513Z" fill="white"/>
</svg>
